SplineFontDB: 3.0
FontName: MyIPAexMincho
FullName: MyIPAexMincho
FamilyName: MyIPAexMincho
Weight: Regular
Copyright: 
UComments: "2019-7-14: Created with FontForge (http://fontforge.org)"
Version: 001.000
ItalicAngle: 0
UnderlinePosition: -99.6094
UnderlineWidth: 49.8047
Ascent: 800
Descent: 200
InvalidEm: 0
LayerCount: 2
Layer: 0 0 "Back" 1
Layer: 1 0 "Fore" 0
XUID: [1021 696 1447101813 976853]
OS2Version: 0
OS2_WeightWidthSlopeOnly: 0
OS2_UseTypoMetrics: 1
CreationTime: 1563114474
ModificationTime: 1563120232
OS2TypoAscent: 0
OS2TypoAOffset: 1
OS2TypoDescent: 0
OS2TypoDOffset: 1
OS2TypoLinegap: 0
OS2WinAscent: 0
OS2WinAOffset: 1
OS2WinDescent: 0
OS2WinDOffset: 1
HheadAscent: 0
HheadAOffset: 1
HheadDescent: 0
HheadDOffset: 1
OS2Vendor: 'PfEd'
MarkAttachClasses: 1
DEI: 91125
Encoding: UnicodeFull
Compacted: 1
UnicodeInterp: none
NameList: AGL For New Fonts
DisplaySize: -48
AntiAlias: 1
FitToEm: 0
WinInfo: 0 29 10
BeginPrivate: 0
EndPrivate
BeginChars: 1114112 37

StartChar: uni2460
Encoding: 9312 9312 9
Width: 1000
VWidth: 937
Flags: HW
LayerCount: 2
Fore
SplineSet
385 18 m 1
 385 41 l 1
 428 43 456 50 466 63 c 0
 473 71 476 87 476 110 c 2
 476 521 l 2
 476 543 467 556 450 560 c 0
 442 562 420 564 385 565 c 1
 385 589 l 1
 448 594 499 607 538 628 c 1
 538 110 l 2
 538 81 545 63 560 54 c 0
 573 47 596 42 629 41 c 1
 629 18 l 1
 385 18 l 1
497 770 m 0
 583 770 663 747 736 701 c 0
 799 662 848 610 887 546 c 0
 929 476 951 401 951 319 c 0
 951 234 928 155 882 82 c 0
 841 18 789 -31 727 -69 c 0
 657 -111 581 -133 499 -133 c 0
 415 -133 336 -110 263 -64 c 0
 199 -23 150 29 112 91 c 0
 70 161 48 237 48 320 c 0
 48 468 110 589 235 682 c 0
 317 741 403 770 497 770 c 0
501 741 m 0
 424 741 351 721 285 680 c 0
 227 646 180 599 143 540 c 0
 99 471 77 398 77 319 c 0
 77 242 97 170 138 104 c 0
 172 46 219 -1 278 -38 c 0
 347 -82 421 -104 501 -104 c 0
 577 -104 648 -84 714 -43 c 0
 772 -9 819 38 856 97 c 0
 900 166 922 240 922 319 c 0
 922 456 865 568 752 654 c 0
 676 712 592 741 501 741 c 0
EndSplineSet
EndChar

StartChar: uni2461
Encoding: 9313 9313 10
Width: 1000
VWidth: 937
Flags: HW
LayerCount: 2
Fore
SplineSet
300 18 m 1
 300 58 l 1
 345 114 409 184 492 266 c 0
 578 351 621 419 621 469 c 0
 621 501 612 529 593 553 c 0
 570 584 539 599 497 599 c 0
 431 599 391 570 377 510 c 1
 396 501 405 487 405 468 c 0
 405 437 390 422 360 422 c 0
 328 422 312 440 312 477 c 0
 312 513 327 545 357 574 c 0
 394 611 441 629 499 629 c 0
 542 629 580 619 613 600 c 0
 664 570 690 526 690 468 c 0
 690 433 679 400 658 368 c 0
 636 337 595 296 535 245 c 0
 460 182 399 124 354 73 c 1
 586 73 l 2
 623 73 648 86 662 113 c 0
 672 131 679 161 682 205 c 1
 705 205 l 1
 705 18 l 1
 300 18 l 1
497 770 m 0
 583 770 663 747 736 701 c 0
 799 662 848 610 887 546 c 0
 929 476 951 401 951 319 c 0
 951 234 928 155 882 82 c 0
 841 18 789 -31 727 -69 c 0
 657 -111 581 -133 499 -133 c 0
 415 -133 336 -110 263 -64 c 0
 199 -23 150 29 112 91 c 0
 70 161 48 237 48 320 c 0
 48 468 110 589 235 682 c 0
 317 741 403 770 497 770 c 0
501 741 m 0
 424 741 351 721 285 680 c 0
 227 646 180 599 143 540 c 0
 99 471 77 398 77 319 c 0
 77 242 97 170 138 104 c 0
 172 46 219 -1 278 -38 c 0
 347 -82 421 -104 501 -104 c 0
 577 -104 648 -84 714 -43 c 0
 772 -9 819 38 856 97 c 0
 900 166 922 240 922 319 c 0
 922 456 865 568 752 654 c 0
 676 712 592 741 501 741 c 0
EndSplineSet
EndChar

StartChar: uni2462
Encoding: 9314 9314 11
Width: 1000
VWidth: 937
Flags: HW
LayerCount: 2
Fore
SplineSet
423 350 m 1
 476 350 l 2
 515 350 547 359 572 377 c 0
 606 400 623 434 623 480 c 0
 623 520 608 551 578 574 c 0
 556 591 530 599 499 599 c 0
 434 599 394 575 379 528 c 1
 398 518 407 502 407 483 c 0
 407 454 393 440 364 440 c 0
 332 440 316 459 316 495 c 0
 316 526 329 553 356 577 c 0
 393 612 441 629 501 629 c 0
 545 629 583 619 617 600 c 0
 665 573 690 534 690 483 c 0
 690 399 636 348 531 333 c 1
 651 320 711 269 711 179 c 0
 711 126 689 83 646 51 c 0
 607 22 558 8 499 8 c 0
 448 8 403 19 364 40 c 0
 319 66 296 99 296 138 c 0
 296 174 312 192 345 192 c 0
 360 192 374 185 385 172 c 1
 391 163 394 153 394 143 c 0
 394 126 385 113 368 103 c 1
 385 59 428 37 496 37 c 0
 531 37 562 47 588 67 c 0
 624 94 641 132 641 178 c 0
 641 268 587 312 478 312 c 2
 423 312 l 1
 423 350 l 1
497 770 m 0
 583 770 663 747 736 701 c 0
 799 662 848 610 887 546 c 0
 929 476 951 401 951 319 c 0
 951 234 928 155 882 82 c 0
 841 18 789 -31 727 -69 c 0
 657 -111 581 -133 499 -133 c 0
 415 -133 336 -110 263 -64 c 0
 199 -23 150 29 112 91 c 0
 70 161 48 237 48 320 c 0
 48 468 110 589 235 682 c 0
 317 741 403 770 497 770 c 0
501 741 m 0
 424 741 351 721 285 680 c 0
 227 646 180 599 143 540 c 0
 99 471 77 398 77 319 c 0
 77 242 97 170 138 104 c 0
 172 46 219 -1 278 -38 c 0
 347 -82 421 -104 501 -104 c 0
 577 -104 648 -84 714 -43 c 0
 772 -9 819 38 856 97 c 0
 900 166 922 240 922 319 c 0
 922 456 865 568 752 654 c 0
 676 712 592 741 501 741 c 0
EndSplineSet
EndChar

StartChar: uni2463
Encoding: 9315 9315 12
Width: 1000
VWidth: 937
Flags: HW
LayerCount: 2
Fore
SplineSet
546 628 m 1
 593 628 l 1
 593 235 l 1
 721 235 l 1
 721 189 l 1
 593 189 l 1
 593 116 l 2
 593 87 600 68 615 60 c 0
 628 54 649 50 679 49 c 1
 679 25 l 1
 443 25 l 1
 443 49 l 1
 487 51 514 58 524 71 c 0
 530 79 533 94 533 116 c 2
 533 189 l 1
 237 189 l 1
 237 226 l 1
 546 628 l 1
533 553 m 1
 286 235 l 1
 533 235 l 1
 533 553 l 1
497 770 m 0
 583 770 663 747 736 701 c 0
 799 662 848 610 887 546 c 0
 929 476 951 401 951 319 c 0
 951 234 928 155 882 82 c 0
 841 18 789 -31 727 -69 c 0
 657 -111 581 -133 499 -133 c 0
 415 -133 336 -110 263 -64 c 0
 199 -23 150 29 112 91 c 0
 70 161 48 237 48 320 c 0
 48 468 110 589 235 682 c 0
 317 741 403 770 497 770 c 0
501 741 m 0
 424 741 351 721 285 680 c 0
 227 646 180 599 143 540 c 0
 99 471 77 398 77 319 c 0
 77 242 97 170 138 104 c 0
 172 46 219 -1 278 -38 c 0
 347 -82 421 -104 501 -104 c 0
 577 -104 648 -84 714 -43 c 0
 772 -9 819 38 856 97 c 0
 900 166 922 240 922 319 c 0
 922 456 865 568 752 654 c 0
 676 712 592 741 501 741 c 0
EndSplineSet
EndChar

StartChar: uni2464
Encoding: 9316 9316 13
Width: 1000
VWidth: 937
Flags: HW
LayerCount: 2
Fore
SplineSet
345 618 m 1
 670 618 l 1
 658 562 l 1
 386 562 l 1
 373 350 l 1
 415 393 462 415 516 415 c 0
 575 415 623 396 661 356 c 0
 693 321 709 277 709 222 c 0
 709 173 695 130 668 92 c 0
 627 36 569 8 494 8 c 0
 435 8 386 24 347 57 c 0
 317 82 302 110 302 141 c 0
 302 178 319 196 351 196 c 0
 383 196 399 180 399 149 c 0
 399 131 389 117 369 108 c 1
 387 61 427 37 489 37 c 0
 525 37 556 51 583 78 c 0
 621 116 639 163 639 221 c 0
 639 256 632 285 618 311 c 0
 593 357 555 381 502 381 c 0
 449 381 400 351 358 290 c 1
 326 303 l 1
 345 618 l 1
497 770 m 0
 583 770 663 747 736 701 c 0
 799 662 848 610 887 546 c 0
 929 476 951 401 951 319 c 0
 951 234 928 155 882 82 c 0
 841 18 789 -31 727 -69 c 0
 657 -111 581 -133 499 -133 c 0
 415 -133 336 -110 263 -64 c 0
 199 -23 150 29 112 91 c 0
 70 161 48 237 48 320 c 0
 48 468 110 589 235 682 c 0
 317 741 403 770 497 770 c 0
501 741 m 0
 424 741 351 721 285 680 c 0
 227 646 180 599 143 540 c 0
 99 471 77 398 77 319 c 0
 77 242 97 170 138 104 c 0
 172 46 219 -1 278 -38 c 0
 347 -82 421 -104 501 -104 c 0
 577 -104 648 -84 714 -43 c 0
 772 -9 819 38 856 97 c 0
 900 166 922 240 922 319 c 0
 922 456 865 568 752 654 c 0
 676 712 592 741 501 741 c 0
EndSplineSet
EndChar

StartChar: uni2465
Encoding: 9317 9317 14
Width: 1000
VWidth: 937
Flags: HW
LayerCount: 2
Fore
SplineSet
363 318 m 1
 409 369 462 394 520 394 c 0
 568 394 607 380 639 352 c 0
 679 318 699 272 699 213 c 0
 699 175 692 141 676 110 c 0
 640 41 584 7 506 7 c 0
 433 7 378 38 340 101 c 0
 311 149 296 213 296 291 c 0
 296 378 313 452 348 512 c 0
 394 590 455 628 532 628 c 0
 570 628 603 619 632 600 c 0
 663 579 678 553 678 523 c 0
 678 490 664 474 633 474 c 256
 602 474 587 488 587 517 c 0
 587 534 594 548 608 557 c 1
 596 585 570 599 531 599 c 0
 479 599 437 566 404 501 c 0
 380 455 366 394 363 318 c 1
363 276 m 0
 363 214 372 162 393 120 c 0
 420 65 459 37 506 37 c 0
 541 37 570 53 593 85 c 0
 618 119 630 160 630 211 c 0
 630 243 624 271 612 294 c 0
 589 338 552 360 503 360 c 0
 476 360 449 351 422 333 c 0
 411 326 399 316 385 302 c 0
 370 288 363 279 363 276 c 0
497 770 m 0
 583 770 663 747 736 701 c 0
 799 662 848 610 887 546 c 0
 929 476 951 401 951 319 c 0
 951 234 928 155 882 82 c 0
 841 18 789 -31 727 -69 c 0
 657 -111 581 -133 499 -133 c 0
 415 -133 336 -110 263 -64 c 0
 199 -23 150 29 112 91 c 0
 70 161 48 237 48 320 c 0
 48 468 110 589 235 682 c 0
 317 741 403 770 497 770 c 0
501 741 m 0
 424 741 351 721 285 680 c 0
 227 646 180 599 143 540 c 0
 99 471 77 398 77 319 c 0
 77 242 97 170 138 104 c 0
 172 46 219 -1 278 -38 c 0
 347 -82 421 -104 501 -104 c 0
 577 -104 648 -84 714 -43 c 0
 772 -9 819 38 856 97 c 0
 900 166 922 240 922 319 c 0
 922 456 865 568 752 654 c 0
 676 712 592 741 501 741 c 0
EndSplineSet
EndChar

StartChar: uni2466
Encoding: 9318 9318 15
Width: 1000
VWidth: 937
Flags: HW
LayerCount: 2
Fore
SplineSet
323 609 m 1
 707 609 l 1
 707 579 l 1
 599 399 541 222 534 46 c 0
 533 13 521 -3 498 -3 c 0
 474 -3 462 13 462 46 c 0
 462 163 527 332 656 555 c 1
 437 555 l 2
 405 555 382 540 368 509 c 0
 359 489 351 454 346 405 c 1
 323 405 l 1
 323 609 l 1
497 770 m 0
 583 770 663 747 736 701 c 0
 799 662 848 610 887 546 c 0
 929 476 951 401 951 319 c 0
 951 234 928 155 882 82 c 0
 841 18 789 -31 727 -69 c 0
 657 -111 581 -133 499 -133 c 0
 415 -133 336 -110 263 -64 c 0
 199 -23 150 29 112 91 c 0
 70 161 48 237 48 320 c 0
 48 468 110 589 235 682 c 0
 317 741 403 770 497 770 c 0
501 741 m 0
 424 741 351 721 285 680 c 0
 227 646 180 599 143 540 c 0
 99 471 77 398 77 319 c 0
 77 242 97 170 138 104 c 0
 172 46 219 -1 278 -38 c 0
 347 -82 421 -104 501 -104 c 0
 577 -104 648 -84 714 -43 c 0
 772 -9 819 38 856 97 c 0
 900 166 922 240 922 319 c 0
 922 456 865 568 752 654 c 0
 676 712 592 741 501 741 c 0
EndSplineSet
EndChar

StartChar: uni2467
Encoding: 9319 9319 16
Width: 1000
VWidth: 937
Flags: HW
LayerCount: 2
Fore
SplineSet
447 329 m 1
 363 372 321 425 321 485 c 0
 321 531 341 568 382 595 c 0
 415 617 455 628 502 628 c 0
 545 628 583 617 617 596 c 0
 658 569 678 535 678 492 c 0
 678 426 633 376 542 343 c 1
 653 298 708 239 708 168 c 0
 708 119 686 79 642 48 c 0
 603 21 554 7 496 7 c 0
 450 7 408 17 371 36 c 0
 314 66 286 108 286 164 c 0
 286 237 340 292 447 329 c 1
511 358 m 1
 515 359 519 361 520 361 c 0
 589 392 623 434 623 486 c 0
 623 513 614 537 596 558 c 0
 573 585 542 599 502 599 c 0
 478 599 455 592 435 580 c 0
 400 559 384 531 384 492 c 0
 384 461 397 434 424 411 c 0
 437 399 455 386 477 375 c 0
 492 367 503 361 511 358 c 1
477 316 m 2
 467 312 l 1
 385 277 344 230 344 170 c 0
 344 139 355 113 375 90 c 0
 406 54 447 37 496 37 c 0
 532 37 564 47 591 66 c 0
 625 91 641 123 641 161 c 0
 641 196 626 225 595 250 c 0
 578 263 557 277 530 291 c 0
 496 308 478 316 477 316 c 2
497 770 m 0
 583 770 663 747 736 701 c 0
 799 662 848 610 887 546 c 0
 929 476 951 401 951 319 c 0
 951 234 928 155 882 82 c 0
 841 18 789 -31 727 -69 c 0
 657 -111 581 -133 499 -133 c 0
 415 -133 336 -110 263 -64 c 0
 199 -23 150 29 112 91 c 0
 70 161 48 237 48 320 c 0
 48 468 110 589 235 682 c 0
 317 741 403 770 497 770 c 0
501 741 m 0
 424 741 351 721 285 680 c 0
 227 646 180 599 143 540 c 0
 99 471 77 398 77 319 c 0
 77 242 97 170 138 104 c 0
 172 46 219 -1 278 -38 c 0
 347 -82 421 -104 501 -104 c 0
 577 -104 648 -84 714 -43 c 0
 772 -9 819 38 856 97 c 0
 900 166 922 240 922 319 c 0
 922 456 865 568 752 654 c 0
 676 712 592 741 501 741 c 0
EndSplineSet
EndChar

StartChar: uni2468
Encoding: 9320 9320 17
Width: 1000
VWidth: 937
Flags: HW
LayerCount: 2
Fore
SplineSet
638 320 m 1
 599 269 549 244 486 244 c 0
 437 244 397 258 364 287 c 0
 324 322 304 369 304 428 c 0
 304 471 315 507 336 539 c 0
 373 598 428 628 501 628 c 0
 572 628 626 598 662 536 c 0
 691 488 705 420 705 336 c 0
 705 247 690 175 659 119 c 0
 618 44 558 7 479 7 c 0
 428 7 385 23 351 55 c 0
 328 76 316 100 316 127 c 0
 316 163 332 181 364 181 c 0
 373 181 382 178 389 174 c 0
 405 165 413 151 413 132 c 0
 413 115 404 102 388 92 c 1
 403 55 433 37 477 37 c 0
 522 37 561 63 592 116 c 0
 620 164 635 232 638 320 c 1
638 368 m 1
 631 522 585 599 500 599 c 0
 466 599 437 585 413 557 c 0
 385 525 371 483 371 431 c 0
 371 403 376 377 386 354 c 0
 409 303 446 277 497 277 c 0
 528 277 557 287 584 307 c 0
 600 319 614 332 625 347 c 0
 632 356 636 364 638 368 c 1
497 770 m 0
 583 770 663 747 736 701 c 0
 799 662 848 610 887 546 c 0
 929 476 951 401 951 319 c 0
 951 234 928 155 882 82 c 0
 841 18 789 -31 727 -69 c 0
 657 -111 581 -133 499 -133 c 0
 415 -133 336 -110 263 -64 c 0
 199 -23 150 29 112 91 c 0
 70 161 48 237 48 320 c 0
 48 468 110 589 235 682 c 0
 317 741 403 770 497 770 c 0
501 741 m 0
 424 741 351 721 285 680 c 0
 227 646 180 599 143 540 c 0
 99 471 77 398 77 319 c 0
 77 242 97 170 138 104 c 0
 172 46 219 -1 278 -38 c 0
 347 -82 421 -104 501 -104 c 0
 577 -104 648 -84 714 -43 c 0
 772 -9 819 38 856 97 c 0
 900 166 922 240 922 319 c 0
 922 456 865 568 752 654 c 0
 676 712 592 741 501 741 c 0
EndSplineSet
EndChar

StartChar: uni24F5
Encoding: 9461 9461 18
Width: 1000
VWidth: 937
Flags: HW
LayerCount: 2
Fore
SplineSet
387 28 m 1
 387 51 l 1
 429 52 456 59 466 71 c 0
 473 80 476 96 476 117 c 2
 476 513 l 2
 476 536 469 549 455 552 c 0
 448 553 426 554 387 555 c 1
 387 578 l 1
 449 583 499 596 537 616 c 1
 537 117 l 2
 537 88 545 69 561 61 c 0
 573 55 595 52 627 51 c 1
 627 28 l 1
 387 28 l 1
497 723 m 0
 566 723 630 707 689 674 c 0
 743 644 787 604 825 554 c 0
 877 483 904 404 904 319 c 0
 904 252 888 189 855 129 c 0
 825 75 785 31 735 -7 c 0
 664 -59 585 -86 500 -86 c 0
 433 -86 370 -70 310 -37 c 0
 256 -7 212 33 174 83 c 0
 122 154 95 233 95 319 c 0
 95 445 146 550 248 632 c 0
 323 693 406 723 497 723 c 0
502 698 m 0
 439 698 380 684 327 655 c 0
 276 629 233 592 197 545 c 0
 145 477 119 401 119 318 c 0
 119 258 133 200 162 146 c 0
 189 95 226 52 272 16 c 0
 340 -36 417 -62 501 -62 c 0
 560 -62 617 -47 673 -18 c 0
 725 8 767 46 803 93 c 0
 854 161 880 235 880 318 c 0
 880 436 833 533 739 610 c 0
 668 669 589 698 502 698 c 0
497 788 m 0
 579 788 656 768 729 726 c 0
 791 690 844 643 885 584 c 0
 942 503 969 416 969 319 c 0
 969 238 949 161 907 88 c 0
 870 26 823 -26 765 -67 c 0
 684 -124 596 -151 499 -151 c 0
 419 -151 343 -131 270 -89 c 0
 208 -52 155 -5 114 53 c 0
 57 134 30 222 30 320 c 0
 30 470 92 593 216 689 c 0
 301 755 394 788 497 788 c 0
502 765 m 0
 424 765 351 745 284 707 c 0
 225 673 176 629 137 575 c 0
 81 497 53 411 53 319 c 0
 53 242 73 170 111 103 c 0
 145 44 189 -5 243 -44 c 0
 321 -100 407 -128 500 -128 c 0
 576 -128 648 -108 715 -70 c 0
 774 -36 823 8 862 62 c 0
 918 140 946 226 946 319 c 0
 946 460 889 575 775 666 c 0
 692 731 602 765 502 765 c 0
EndSplineSet
EndChar

StartChar: uni24F6
Encoding: 9462 9462 19
Width: 1000
VWidth: 937
Flags: HW
LayerCount: 2
Fore
SplineSet
304 28 m 1
 304 68 l 1
 343 116 406 183 492 266 c 0
 575 348 617 413 617 464 c 0
 617 495 609 521 593 543 c 0
 570 574 539 589 498 589 c 0
 432 589 395 559 384 500 c 1
 403 491 411 478 411 459 c 0
 411 428 396 413 366 413 c 0
 334 413 319 432 319 468 c 0
 319 505 334 537 363 566 c 0
 398 601 442 619 499 619 c 0
 545 619 584 608 618 587 c 0
 662 558 685 517 685 465 c 0
 685 424 672 387 645 352 c 0
 625 326 588 290 535 246 c 0
 460 184 402 129 360 82 c 1
 584 82 l 2
 624 82 650 96 662 121 c 0
 670 138 675 165 677 205 c 1
 700 205 l 1
 700 28 l 1
 304 28 l 1
497 723 m 0
 566 723 630 707 689 674 c 0
 743 644 787 604 825 554 c 0
 877 483 904 404 904 319 c 0
 904 252 888 189 855 129 c 0
 825 75 785 31 735 -7 c 0
 664 -59 585 -86 500 -86 c 0
 433 -86 370 -70 310 -37 c 0
 256 -7 212 33 174 83 c 0
 122 154 95 233 95 319 c 0
 95 445 146 550 248 632 c 0
 323 693 406 723 497 723 c 0
502 698 m 0
 439 698 380 684 327 655 c 0
 276 629 233 592 197 545 c 0
 145 477 119 401 119 318 c 0
 119 258 133 200 162 146 c 0
 189 95 226 52 272 16 c 0
 340 -36 417 -62 501 -62 c 0
 560 -62 617 -47 673 -18 c 0
 725 8 767 46 803 93 c 0
 854 161 880 235 880 318 c 0
 880 436 833 533 739 610 c 0
 668 669 589 698 502 698 c 0
497 788 m 0
 579 788 656 768 729 726 c 0
 791 690 844 643 885 584 c 0
 942 503 969 416 969 319 c 0
 969 238 949 161 907 88 c 0
 870 26 823 -26 765 -67 c 0
 684 -124 596 -151 499 -151 c 0
 419 -151 343 -131 270 -89 c 0
 208 -52 155 -5 114 53 c 0
 57 134 30 222 30 320 c 0
 30 470 92 593 216 689 c 0
 301 755 394 788 497 788 c 0
502 765 m 0
 424 765 351 745 284 707 c 0
 225 673 176 629 137 575 c 0
 81 497 53 411 53 319 c 0
 53 242 73 170 111 103 c 0
 145 44 189 -5 243 -44 c 0
 321 -100 407 -128 500 -128 c 0
 576 -128 648 -108 715 -70 c 0
 774 -36 823 8 862 62 c 0
 918 140 946 226 946 319 c 0
 946 460 889 575 775 666 c 0
 692 731 602 765 502 765 c 0
EndSplineSet
EndChar

StartChar: uni24F7
Encoding: 9463 9463 20
Width: 1000
VWidth: 937
Flags: HW
LayerCount: 2
Fore
SplineSet
425 348 m 1
 476 348 l 2
 517 348 549 357 574 377 c 0
 604 400 619 433 619 475 c 0
 619 511 606 540 580 562 c 0
 559 580 532 589 499 589 c 0
 435 589 397 566 384 521 c 1
 403 510 411 496 411 479 c 0
 411 450 397 436 368 436 c 0
 337 436 322 455 322 491 c 0
 322 520 334 545 359 567 c 0
 395 601 441 619 499 619 c 0
 542 619 580 610 612 593 c 0
 661 566 685 526 685 477 c 0
 685 395 634 347 531 332 c 1
 648 320 705 270 705 183 c 0
 705 132 685 91 643 60 c 0
 606 32 558 18 498 18 c 0
 446 18 401 30 364 52 c 0
 322 77 302 107 302 143 c 0
 302 179 317 197 348 197 c 0
 365 197 379 190 389 175 c 0
 394 167 397 158 397 150 c 0
 397 133 388 120 372 111 c 1
 389 69 431 47 497 47 c 0
 529 47 557 55 581 72 c 0
 618 98 636 135 636 182 c 0
 636 269 584 312 479 312 c 2
 425 312 l 1
 425 348 l 1
497 723 m 0
 566 723 630 707 689 674 c 0
 743 644 787 604 825 554 c 0
 877 483 904 404 904 319 c 0
 904 252 888 189 855 129 c 0
 825 75 785 31 735 -7 c 0
 664 -59 585 -86 500 -86 c 0
 433 -86 370 -70 310 -37 c 0
 256 -7 212 33 174 83 c 0
 122 154 95 233 95 319 c 0
 95 445 146 550 248 632 c 0
 323 693 406 723 497 723 c 0
502 698 m 0
 439 698 380 684 327 655 c 0
 276 629 233 592 197 545 c 0
 145 477 119 401 119 318 c 0
 119 258 133 200 162 146 c 0
 189 95 226 52 272 16 c 0
 340 -36 417 -62 501 -62 c 0
 560 -62 617 -47 673 -18 c 0
 725 8 767 46 803 93 c 0
 854 161 880 235 880 318 c 0
 880 436 833 533 739 610 c 0
 668 669 589 698 502 698 c 0
497 788 m 0
 579 788 656 768 729 726 c 0
 791 690 844 643 885 584 c 0
 942 503 969 416 969 319 c 0
 969 238 949 161 907 88 c 0
 870 26 823 -26 765 -67 c 0
 684 -124 596 -151 499 -151 c 0
 419 -151 343 -131 270 -89 c 0
 208 -52 155 -5 114 53 c 0
 57 134 30 222 30 320 c 0
 30 470 92 593 216 689 c 0
 301 755 394 788 497 788 c 0
502 765 m 0
 424 765 351 745 284 707 c 0
 225 673 176 629 137 575 c 0
 81 497 53 411 53 319 c 0
 53 242 73 170 111 103 c 0
 145 44 189 -5 243 -44 c 0
 321 -100 407 -128 500 -128 c 0
 576 -128 648 -108 715 -70 c 0
 774 -36 823 8 862 62 c 0
 918 140 946 226 946 319 c 0
 946 460 889 575 775 666 c 0
 692 731 602 765 502 765 c 0
EndSplineSet
EndChar

StartChar: uni24F8
Encoding: 9464 9464 21
Width: 1000
VWidth: 937
Flags: HW
LayerCount: 2
Fore
SplineSet
546 618 m 1
 593 618 l 1
 593 239 l 1
 715 239 l 1
 715 194 l 1
 593 194 l 1
 593 125 l 2
 593 96 600 79 615 72 c 0
 627 66 647 61 675 60 c 1
 675 38 l 1
 447 38 l 1
 447 60 l 1
 488 62 513 68 523 79 c 0
 530 87 533 103 533 125 c 2
 533 194 l 1
 242 194 l 1
 242 231 l 1
 546 618 l 1
533 544 m 1
 291 239 l 1
 533 239 l 1
 533 544 l 1
497 723 m 0
 566 723 630 707 689 674 c 0
 743 644 787 604 825 554 c 0
 877 483 904 404 904 319 c 0
 904 252 888 189 855 129 c 0
 825 75 785 31 735 -7 c 0
 664 -59 585 -86 500 -86 c 0
 433 -86 370 -70 310 -37 c 0
 256 -7 212 33 174 83 c 0
 122 154 95 233 95 319 c 0
 95 445 146 550 248 632 c 0
 323 693 406 723 497 723 c 0
502 698 m 0
 439 698 380 684 327 655 c 0
 276 629 233 592 197 545 c 0
 145 477 119 401 119 318 c 0
 119 258 133 200 162 146 c 0
 189 95 226 52 272 16 c 0
 340 -36 417 -62 501 -62 c 0
 560 -62 617 -47 673 -18 c 0
 725 8 767 46 803 93 c 0
 854 161 880 235 880 318 c 0
 880 436 833 533 739 610 c 0
 668 669 589 698 502 698 c 0
497 788 m 0
 579 788 656 768 729 726 c 0
 791 690 844 643 885 584 c 0
 942 503 969 416 969 319 c 0
 969 238 949 161 907 88 c 0
 870 26 823 -26 765 -67 c 0
 684 -124 596 -151 499 -151 c 0
 419 -151 343 -131 270 -89 c 0
 208 -52 155 -5 114 53 c 0
 57 134 30 222 30 320 c 0
 30 470 92 593 216 689 c 0
 301 755 394 788 497 788 c 0
502 765 m 0
 424 765 351 745 284 707 c 0
 225 673 176 629 137 575 c 0
 81 497 53 411 53 319 c 0
 53 242 73 170 111 103 c 0
 145 44 189 -5 243 -44 c 0
 321 -100 407 -128 500 -128 c 0
 576 -128 648 -108 715 -70 c 0
 774 -36 823 8 862 62 c 0
 918 140 946 226 946 319 c 0
 946 460 889 575 775 666 c 0
 692 731 602 765 502 765 c 0
EndSplineSet
EndChar

StartChar: uni24F9
Encoding: 9465 9465 22
Width: 1000
VWidth: 937
Flags: HW
LayerCount: 2
Fore
SplineSet
349 608 m 1
 666 608 l 1
 656 554 l 1
 389 554 l 1
 378 350 l 1
 420 391 465 412 516 412 c 0
 573 412 619 393 656 355 c 0
 688 321 704 278 704 225 c 0
 704 161 681 108 635 69 c 0
 596 35 549 18 494 18 c 0
 438 18 391 33 354 63 c 0
 323 88 308 116 308 147 c 0
 308 181 324 199 356 199 c 0
 387 199 402 184 402 154 c 0
 402 136 393 123 375 115 c 1
 392 71 429 48 489 48 c 0
 523 48 553 61 579 86 c 0
 616 121 635 167 635 224 c 0
 635 258 628 287 614 312 c 0
 590 356 553 378 503 378 c 0
 452 378 405 349 363 291 c 1
 331 303 l 1
 349 608 l 1
497 723 m 0
 566 723 630 707 689 674 c 0
 743 644 787 604 825 554 c 0
 877 483 904 404 904 319 c 0
 904 252 888 189 855 129 c 0
 825 75 785 31 735 -7 c 0
 664 -59 585 -86 500 -86 c 0
 433 -86 370 -70 310 -37 c 0
 256 -7 212 33 174 83 c 0
 122 154 95 233 95 319 c 0
 95 445 146 550 248 632 c 0
 323 693 406 723 497 723 c 0
502 698 m 0
 439 698 380 684 327 655 c 0
 276 629 233 592 197 545 c 0
 145 477 119 401 119 318 c 0
 119 258 133 200 162 146 c 0
 189 95 226 52 272 16 c 0
 340 -36 417 -62 501 -62 c 0
 560 -62 617 -47 673 -18 c 0
 725 8 767 46 803 93 c 0
 854 161 880 235 880 318 c 0
 880 436 833 533 739 610 c 0
 668 669 589 698 502 698 c 0
497 788 m 0
 579 788 656 768 729 726 c 0
 791 690 844 643 885 584 c 0
 942 503 969 416 969 319 c 0
 969 238 949 161 907 88 c 0
 870 26 823 -26 765 -67 c 0
 684 -124 596 -151 499 -151 c 0
 419 -151 343 -131 270 -89 c 0
 208 -52 155 -5 114 53 c 0
 57 134 30 222 30 320 c 0
 30 470 92 593 216 689 c 0
 301 755 394 788 497 788 c 0
502 765 m 0
 424 765 351 745 284 707 c 0
 225 673 176 629 137 575 c 0
 81 497 53 411 53 319 c 0
 53 242 73 170 111 103 c 0
 145 44 189 -5 243 -44 c 0
 321 -100 407 -128 500 -128 c 0
 576 -128 648 -108 715 -70 c 0
 774 -36 823 8 862 62 c 0
 918 140 946 226 946 319 c 0
 946 460 889 575 775 666 c 0
 692 731 602 765 502 765 c 0
EndSplineSet
EndChar

StartChar: uni24FA
Encoding: 9466 9466 23
Width: 1000
VWidth: 937
Flags: HW
LayerCount: 2
Fore
SplineSet
368 318 m 1
 415 367 466 391 521 391 c 0
 567 391 605 378 636 351 c 0
 675 318 695 275 695 218 c 0
 695 186 688 155 675 126 c 0
 641 54 584 18 505 18 c 0
 440 18 388 46 351 100 c 0
 318 148 302 212 302 294 c 0
 302 375 318 444 351 500 c 0
 396 579 457 619 536 619 c 0
 578 619 614 605 642 580 c 0
 663 560 675 539 675 517 c 0
 675 485 660 469 630 469 c 0
 601 469 586 483 586 512 c 0
 586 527 593 539 606 548 c 1
 594 575 569 589 532 589 c 0
 480 589 439 558 408 496 c 0
 385 452 371 392 368 318 c 1
368 278 m 0
 368 236 374 197 385 163 c 0
 408 85 448 47 506 47 c 0
 539 47 567 62 590 93 c 0
 614 126 626 167 626 215 c 0
 626 255 617 286 598 311 c 0
 575 342 543 358 503 358 c 0
 478 358 453 349 426 332 c 0
 416 325 403 315 389 302 c 256
 375 289 368 281 368 278 c 0
497 723 m 0
 566 723 630 707 689 674 c 0
 743 644 787 604 825 554 c 0
 877 483 904 404 904 319 c 0
 904 252 888 189 855 129 c 0
 825 75 785 31 735 -7 c 0
 664 -59 585 -86 500 -86 c 0
 433 -86 370 -70 310 -37 c 0
 256 -7 212 33 174 83 c 0
 122 154 95 233 95 319 c 0
 95 445 146 550 248 632 c 0
 323 693 406 723 497 723 c 0
502 698 m 0
 439 698 380 684 327 655 c 0
 276 629 233 592 197 545 c 0
 145 477 119 401 119 318 c 0
 119 258 133 200 162 146 c 0
 189 95 226 52 272 16 c 0
 340 -36 417 -62 501 -62 c 0
 560 -62 617 -47 673 -18 c 0
 725 8 767 46 803 93 c 0
 854 161 880 235 880 318 c 0
 880 436 833 533 739 610 c 0
 668 669 589 698 502 698 c 0
497 788 m 0
 579 788 656 768 729 726 c 0
 791 690 844 643 885 584 c 0
 942 503 969 416 969 319 c 0
 969 238 949 161 907 88 c 0
 870 26 823 -26 765 -67 c 0
 684 -124 596 -151 499 -151 c 0
 419 -151 343 -131 270 -89 c 0
 208 -52 155 -5 114 53 c 0
 57 134 30 222 30 320 c 0
 30 470 92 593 216 689 c 0
 301 755 394 788 497 788 c 0
502 765 m 0
 424 765 351 745 284 707 c 0
 225 673 176 629 137 575 c 0
 81 497 53 411 53 319 c 0
 53 242 73 170 111 103 c 0
 145 44 189 -5 243 -44 c 0
 321 -100 407 -128 500 -128 c 0
 576 -128 648 -108 715 -70 c 0
 774 -36 823 8 862 62 c 0
 918 140 946 226 946 319 c 0
 946 460 889 575 775 666 c 0
 692 731 602 765 502 765 c 0
EndSplineSet
EndChar

StartChar: uni24FB
Encoding: 9467 9467 24
Width: 1000
VWidth: 937
Flags: HW
LayerCount: 2
Fore
SplineSet
328 599 m 1
 704 599 l 1
 704 569 l 1
 595 392 538 222 532 58 c 0
 531 25 519 9 497 9 c 0
 474 9 463 25 463 57 c 0
 463 170 526 333 652 547 c 1
 437 547 l 2
 407 547 386 533 373 505 c 0
 363 486 355 451 350 402 c 1
 328 402 l 1
 328 599 l 1
497 723 m 0
 566 723 630 707 689 674 c 0
 743 644 787 604 825 554 c 0
 877 483 904 404 904 319 c 0
 904 252 888 189 855 129 c 0
 825 75 785 31 735 -7 c 0
 664 -59 585 -86 500 -86 c 0
 433 -86 370 -70 310 -37 c 0
 256 -7 212 33 174 83 c 0
 122 154 95 233 95 319 c 0
 95 445 146 550 248 632 c 0
 323 693 406 723 497 723 c 0
502 698 m 0
 439 698 380 684 327 655 c 0
 276 629 233 592 197 545 c 0
 145 477 119 401 119 318 c 0
 119 258 133 200 162 146 c 0
 189 95 226 52 272 16 c 0
 340 -36 417 -62 501 -62 c 0
 560 -62 617 -47 673 -18 c 0
 725 8 767 46 803 93 c 0
 854 161 880 235 880 318 c 0
 880 436 833 533 739 610 c 0
 668 669 589 698 502 698 c 0
497 788 m 0
 579 788 656 768 729 726 c 0
 791 690 844 643 885 584 c 0
 942 503 969 416 969 319 c 0
 969 238 949 161 907 88 c 0
 870 26 823 -26 765 -67 c 0
 684 -124 596 -151 499 -151 c 0
 419 -151 343 -131 270 -89 c 0
 208 -52 155 -5 114 53 c 0
 57 134 30 222 30 320 c 0
 30 470 92 593 216 689 c 0
 301 755 394 788 497 788 c 0
502 765 m 0
 424 765 351 745 284 707 c 0
 225 673 176 629 137 575 c 0
 81 497 53 411 53 319 c 0
 53 242 73 170 111 103 c 0
 145 44 189 -5 243 -44 c 0
 321 -100 407 -128 500 -128 c 0
 576 -128 648 -108 715 -70 c 0
 774 -36 823 8 862 62 c 0
 918 140 946 226 946 319 c 0
 946 460 889 575 775 666 c 0
 692 731 602 765 502 765 c 0
EndSplineSet
EndChar

StartChar: uni24FC
Encoding: 9468 9468 25
Width: 1000
VWidth: 937
Flags: HW
LayerCount: 2
Fore
SplineSet
448 328 m 1
 366 370 325 420 325 479 c 0
 325 521 344 555 380 582 c 0
 413 606 453 619 500 619 c 0
 544 619 582 608 613 587 c 1
 654 562 674 528 674 485 c 0
 674 422 628 374 538 343 c 1
 647 299 701 243 701 176 c 0
 701 129 682 91 643 62 c 0
 604 33 556 18 496 18 c 0
 450 18 410 27 375 45 c 0
 320 74 293 116 293 170 c 0
 293 242 344 295 448 328 c 1
510 356 m 1
 516 359 l 2
 584 389 618 430 618 481 c 0
 618 508 609 533 589 554 c 0
 566 577 537 589 502 589 c 0
 470 589 444 580 423 563 c 0
 399 543 386 517 386 486 c 0
 386 456 399 431 424 409 c 0
 438 396 454 383 475 373 c 0
 491 364 503 358 510 356 c 1
479 317 m 1
 472 314 l 1
 390 280 350 235 350 177 c 0
 350 142 364 111 391 86 c 0
 420 60 455 47 497 47 c 0
 528 47 555 54 578 69 c 0
 616 93 635 126 635 168 c 0
 635 200 621 228 592 252 c 0
 576 266 556 279 531 292 c 0
 503 306 485 315 479 317 c 1
497 723 m 0
 566 723 630 707 689 674 c 0
 743 644 787 604 825 554 c 0
 877 483 904 404 904 319 c 0
 904 252 888 189 855 129 c 0
 825 75 785 31 735 -7 c 0
 664 -59 585 -86 500 -86 c 0
 433 -86 370 -70 310 -37 c 0
 256 -7 212 33 174 83 c 0
 122 154 95 233 95 319 c 0
 95 445 146 550 248 632 c 0
 323 693 406 723 497 723 c 0
502 698 m 0
 439 698 380 684 327 655 c 0
 276 629 233 592 197 545 c 0
 145 477 119 401 119 318 c 0
 119 258 133 200 162 146 c 0
 189 95 226 52 272 16 c 0
 340 -36 417 -62 501 -62 c 0
 560 -62 617 -47 673 -18 c 0
 725 8 767 46 803 93 c 0
 854 161 880 235 880 318 c 0
 880 436 833 533 739 610 c 0
 668 669 589 698 502 698 c 0
497 788 m 0
 579 788 656 768 729 726 c 0
 791 690 844 643 885 584 c 0
 942 503 969 416 969 319 c 0
 969 238 949 161 907 88 c 0
 870 26 823 -26 765 -67 c 0
 684 -124 596 -151 499 -151 c 0
 419 -151 343 -131 270 -89 c 0
 208 -52 155 -5 114 53 c 0
 57 134 30 222 30 320 c 0
 30 470 92 593 216 689 c 0
 301 755 394 788 497 788 c 0
502 765 m 0
 424 765 351 745 284 707 c 0
 225 673 176 629 137 575 c 0
 81 497 53 411 53 319 c 0
 53 242 73 170 111 103 c 0
 145 44 189 -5 243 -44 c 0
 321 -100 407 -128 500 -128 c 0
 576 -128 648 -108 715 -70 c 0
 774 -36 823 8 862 62 c 0
 918 140 946 226 946 319 c 0
 946 460 889 575 775 666 c 0
 692 731 602 765 502 765 c 0
EndSplineSet
EndChar

StartChar: uni24FD
Encoding: 9469 9469 26
Width: 1000
VWidth: 937
Flags: HW
LayerCount: 2
Fore
SplineSet
634 320 m 1
 595 270 546 246 486 246 c 0
 441 246 402 260 370 287 c 0
 331 320 312 365 312 423 c 0
 312 465 322 503 343 536 c 0
 380 591 432 619 501 619 c 0
 564 619 614 592 649 541 c 0
 682 492 698 424 698 338 c 0
 698 256 684 189 656 135 c 0
 614 57 556 18 478 18 c 0
 429 18 388 34 355 65 c 0
 333 86 322 110 322 136 c 0
 322 169 337 185 368 185 c 0
 400 185 417 170 417 139 c 0
 417 123 408 110 392 101 c 1
 406 65 434 48 476 48 c 0
 520 48 558 73 587 122 c 0
 615 169 631 236 634 320 c 1
634 367 m 0
 634 419 625 465 608 506 c 0
 584 561 548 589 501 589 c 0
 469 589 441 575 418 548 c 0
 391 517 378 477 378 427 c 0
 378 390 386 360 402 335 c 0
 425 297 456 279 497 279 c 0
 519 279 541 285 563 297 c 0
 584 308 602 323 617 343 c 0
 628 356 634 364 634 367 c 0
497 723 m 0
 566 723 630 707 689 674 c 0
 743 644 787 604 825 554 c 0
 877 483 904 404 904 319 c 0
 904 252 888 189 855 129 c 0
 825 75 785 31 735 -7 c 0
 664 -59 585 -86 500 -86 c 0
 433 -86 370 -70 310 -37 c 0
 256 -7 212 33 174 83 c 0
 122 154 95 233 95 319 c 0
 95 445 146 550 248 632 c 0
 323 693 406 723 497 723 c 0
502 698 m 0
 439 698 380 684 327 655 c 0
 276 629 233 592 197 545 c 0
 145 477 119 401 119 318 c 0
 119 258 133 200 162 146 c 0
 189 95 226 52 272 16 c 0
 340 -36 417 -62 501 -62 c 0
 560 -62 617 -47 673 -18 c 0
 725 8 767 46 803 93 c 0
 854 161 880 235 880 318 c 0
 880 436 833 533 739 610 c 0
 668 669 589 698 502 698 c 0
497 788 m 0
 579 788 656 768 729 726 c 0
 791 690 844 643 885 584 c 0
 942 503 969 416 969 319 c 0
 969 238 949 161 907 88 c 0
 870 26 823 -26 765 -67 c 0
 684 -124 596 -151 499 -151 c 0
 419 -151 343 -131 270 -89 c 0
 208 -52 155 -5 114 53 c 0
 57 134 30 222 30 320 c 0
 30 470 92 593 216 689 c 0
 301 755 394 788 497 788 c 0
502 765 m 0
 424 765 351 745 284 707 c 0
 225 673 176 629 137 575 c 0
 81 497 53 411 53 319 c 0
 53 242 73 170 111 103 c 0
 145 44 189 -5 243 -44 c 0
 321 -100 407 -128 500 -128 c 0
 576 -128 648 -108 715 -70 c 0
 774 -36 823 8 862 62 c 0
 918 140 946 226 946 319 c 0
 946 460 889 575 775 666 c 0
 692 731 602 765 502 765 c 0
EndSplineSet
EndChar

StartChar: uni2776
Encoding: 10102 10102 27
Width: 1000
VWidth: 937
Flags: HW
LayerCount: 2
Fore
SplineSet
498 770 m 0
 584 770 664 747 736 701 c 1
 799 662 849 610 888 546 c 0
 930 476 952 401 952 319 c 0
 952 234 928 155 882 82 c 0
 841 18 790 -31 728 -69 c 0
 658 -111 582 -133 499 -133 c 0
 415 -133 336 -110 264 -64 c 0
 200 -23 150 29 112 91 c 0
 70 161 48 237 48 320 c 0
 48 468 110 589 235 682 c 0
 317 741 404 770 498 770 c 0
629 18 m 1
 629 41 l 1
 586 43 558 50 548 63 c 0
 541 71 538 87 538 110 c 2
 538 628 l 1
 501 608 450 595 385 589 c 1
 385 565 l 1
 429 564 456 561 465 555 c 0
 472 550 476 538 476 521 c 2
 476 110 l 2
 476 81 468 63 453 54 c 0
 441 47 418 42 385 41 c 1
 385 18 l 1
 629 18 l 1
EndSplineSet
EndChar

StartChar: uni2777
Encoding: 10103 10103 28
Width: 1000
VWidth: 937
Flags: HW
LayerCount: 2
Fore
SplineSet
498 770 m 0
 584 770 664 747 736 701 c 1
 799 662 849 610 888 546 c 0
 930 476 952 400 952 318 c 0
 952 234 928 155 882 82 c 0
 841 18 790 -31 728 -69 c 0
 658 -111 582 -133 499 -133 c 0
 415 -133 336 -110 264 -64 c 0
 200 -23 150 28 112 90 c 0
 70 161 48 237 48 319 c 0
 48 468 110 589 235 682 c 0
 317 741 404 770 498 770 c 0
705 205 m 1
 682 205 l 1
 679 154 670 119 654 99 c 0
 639 81 616 72 586 72 c 2
 354 72 l 1
 402 125 467 187 550 257 c 0
 643 337 690 407 690 467 c 0
 690 514 673 553 637 584 c 0
 602 614 556 629 500 629 c 0
 440 629 391 610 354 572 c 0
 326 543 312 512 312 478 c 0
 312 440 328 422 360 422 c 0
 390 422 405 437 405 468 c 0
 405 486 396 500 377 510 c 1
 390 569 430 599 497 599 c 0
 534 599 564 585 588 559 c 0
 610 534 621 505 621 470 c 0
 621 419 573 345 477 250 c 0
 406 181 347 117 300 58 c 1
 300 18 l 1
 705 18 l 1
 705 205 l 1
EndSplineSet
EndChar

StartChar: uni2778
Encoding: 10104 10104 29
Width: 1000
VWidth: 937
Flags: HW
LayerCount: 2
Fore
SplineSet
497 770 m 0
 583 770 663 747 736 701 c 0
 799 662 848 610 887 546 c 0
 929 476 951 401 951 319 c 0
 951 234 928 155 882 82 c 0
 841 18 789 -31 727 -69 c 0
 657 -111 581 -133 499 -133 c 0
 415 -133 336 -110 263 -64 c 0
 199 -23 150 29 112 91 c 0
 70 161 48 237 48 320 c 0
 48 468 110 589 235 682 c 0
 317 741 403 770 497 770 c 0
423 312 m 1
 478 312 l 2
 586 312 640 268 640 178 c 0
 640 142 628 110 605 84 c 0
 577 53 540 37 496 37 c 0
 428 37 385 59 368 103 c 1
 385 112 394 125 394 144 c 0
 394 153 391 163 385 172 c 1
 374 185 360 192 345 192 c 0
 312 192 296 174 296 138 c 0
 296 102 314 72 352 47 c 0
 391 21 440 8 499 8 c 0
 551 8 595 19 632 41 c 0
 685 73 711 119 711 179 c 0
 711 269 651 320 531 333 c 1
 636 348 690 399 690 482 c 0
 690 527 671 564 631 592 c 0
 596 617 553 629 501 629 c 0
 449 629 403 615 366 587 c 0
 332 561 316 531 316 495 c 0
 316 459 332 440 364 440 c 0
 393 440 407 454 407 483 c 0
 407 501 398 517 379 528 c 1
 394 575 434 599 498 599 c 0
 523 599 545 592 565 581 c 0
 604 560 623 526 623 479 c 0
 623 426 600 389 554 367 c 0
 533 356 507 350 476 350 c 2
 423 350 l 1
 423 312 l 1
EndSplineSet
EndChar

StartChar: uni2779
Encoding: 10105 10105 30
Width: 1000
VWidth: 937
Flags: HW
LayerCount: 2
Fore
SplineSet
533 553 m 1
 533 235 l 1
 286 235 l 1
 533 553 l 1
497 770 m 0
 583 770 663 746 736 700 c 0
 799 661 848 610 887 546 c 0
 929 476 951 400 951 318 c 0
 951 233 928 154 882 82 c 0
 841 18 789 -32 727 -70 c 0
 657 -112 581 -134 499 -134 c 0
 415 -134 336 -110 263 -64 c 0
 199 -23 150 28 112 90 c 0
 70 160 48 236 48 319 c 0
 48 467 110 588 235 681 c 0
 317 740 403 770 497 770 c 0
546 628 m 1
 237 226 l 1
 237 189 l 1
 533 189 l 1
 533 116 l 2
 533 87 526 68 510 60 c 0
 496 54 474 50 443 49 c 1
 443 25 l 1
 679 25 l 1
 679 49 l 1
 638 51 613 58 603 70 c 0
 597 78 593 93 593 116 c 2
 593 189 l 1
 721 189 l 1
 721 235 l 1
 593 235 l 1
 593 628 l 1
 546 628 l 1
EndSplineSet
EndChar

StartChar: uni277A
Encoding: 10106 10106 31
Width: 1000
VWidth: 937
Flags: HW
LayerCount: 2
Fore
SplineSet
497 770 m 0
 583 770 663 747 736 701 c 0
 799 662 848 610 887 546 c 0
 929 476 951 401 951 319 c 0
 951 234 928 155 882 82 c 0
 841 18 789 -31 727 -69 c 0
 657 -111 581 -133 499 -133 c 0
 415 -133 336 -110 263 -64 c 0
 199 -23 150 29 112 91 c 0
 70 161 48 237 48 320 c 0
 48 468 110 589 235 682 c 0
 317 741 403 770 497 770 c 0
345 618 m 1
 326 303 l 1
 358 290 l 1
 400 351 449 382 502 382 c 0
 547 382 584 364 610 326 c 0
 629 298 638 263 638 221 c 0
 638 170 624 128 595 93 c 1
 566 56 531 37 489 37 c 0
 426 37 386 61 369 108 c 1
 389 116 399 129 399 148 c 0
 399 180 383 196 351 196 c 0
 319 196 302 178 302 141 c 0
 302 110 316 83 345 58 c 0
 385 25 434 8 494 8 c 0
 544 8 587 21 624 48 c 0
 681 89 709 146 709 221 c 0
 709 276 693 320 662 355 c 0
 625 395 576 415 516 415 c 0
 463 415 415 393 373 350 c 1
 386 562 l 1
 658 562 l 1
 670 618 l 1
 345 618 l 1
EndSplineSet
EndChar

StartChar: uni277B
Encoding: 10107 10107 32
Width: 1000
VWidth: 937
Flags: HW
LayerCount: 2
Fore
SplineSet
363 276 m 0
 404 332 451 360 503 360 c 0
 545 360 579 343 603 309 c 0
 621 283 630 251 630 212 c 0
 630 167 618 128 597 94 c 0
 573 56 543 37 506 37 c 0
 458 37 420 65 393 120 c 0
 381 147 372 176 367 211 c 0
 361 252 361 274 363 276 c 0
497 770 m 0
 583 770 663 747 736 701 c 0
 799 662 848 610 887 546 c 0
 929 476 951 401 951 319 c 0
 951 234 928 155 882 82 c 0
 841 18 789 -31 727 -69 c 0
 657 -111 581 -133 499 -133 c 0
 415 -133 336 -110 263 -64 c 0
 199 -23 150 29 112 91 c 0
 70 161 48 237 48 320 c 0
 48 468 110 589 235 682 c 0
 317 741 403 770 497 770 c 0
608 557 m 1
 594 548 587 534 587 517 c 0
 587 488 602 474 633 474 c 256
 664 474 678 490 678 523 c 0
 678 548 667 570 644 589 c 1
 615 615 577 628 532 628 c 0
 463 628 407 596 362 532 c 0
 318 469 296 389 296 291 c 0
 296 214 311 150 340 101 c 0
 378 38 433 7 507 7 c 0
 573 7 624 34 662 88 c 0
 687 124 699 165 699 212 c 0
 699 263 685 305 655 338 c 0
 622 376 577 394 521 394 c 0
 462 394 409 369 363 318 c 1
 366 401 382 468 413 518 c 0
 445 571 484 599 531 599 c 0
 571 599 597 585 608 557 c 1
EndSplineSet
EndChar

StartChar: uni277C
Encoding: 10108 10108 33
Width: 1000
VWidth: 937
Flags: HW
LayerCount: 2
Fore
SplineSet
497 770 m 0
 583 770 663 747 736 701 c 0
 799 662 848 610 887 547 c 0
 929 476 951 401 951 319 c 0
 951 234 928 155 882 82 c 0
 841 18 789 -31 727 -69 c 0
 657 -111 581 -133 499 -133 c 0
 415 -133 336 -110 263 -64 c 0
 199 -23 150 29 112 91 c 0
 70 161 48 237 48 320 c 0
 48 468 110 589 235 682 c 0
 317 741 403 770 497 770 c 0
323 609 m 1
 323 406 l 1
 346 406 l 1
 352 464 363 504 377 525 c 0
 390 546 409 556 437 556 c 2
 656 556 l 1
 527 333 462 163 462 46 c 0
 462 13 474 -3 497 -3 c 0
 520 -3 532 17 535 55 c 0
 546 232 603 406 707 579 c 1
 707 609 l 1
 323 609 l 1
EndSplineSet
EndChar

StartChar: uni277D
Encoding: 10109 10109 34
Width: 1000
VWidth: 937
Flags: HW
LayerCount: 2
Fore
SplineSet
511 358 m 1
 426 396 384 441 384 492 c 0
 384 522 395 546 418 567 c 0
 440 588 469 599 503 599 c 0
 525 599 546 593 565 583 c 0
 605 562 624 530 624 487 c 0
 624 452 609 422 578 396 c 0
 567 387 554 379 538 371 c 0
 525 364 516 359 511 358 c 1
477 316 m 0
 478 316 482 314 486 312 c 0
 490 311 492 309 494 308 c 0
 591 264 640 215 640 162 c 0
 640 132 630 105 609 82 c 0
 580 52 541 37 494 37 c 0
 451 37 414 51 385 79 c 0
 358 105 344 136 344 170 c 0
 344 207 358 239 386 265 c 0
 398 276 416 287 438 298 c 0
 457 308 470 315 477 316 c 0
497 770 m 0
 583 770 663 747 736 701 c 0
 799 662 848 610 887 546 c 0
 929 476 951 401 951 319 c 0
 951 234 928 155 882 82 c 0
 841 18 789 -31 727 -69 c 0
 657 -111 581 -133 499 -133 c 0
 415 -133 336 -110 263 -64 c 0
 199 -23 150 29 112 91 c 0
 70 161 48 237 48 320 c 0
 48 468 110 589 235 682 c 0
 317 741 403 770 497 770 c 0
542 343 m 1
 633 376 678 425 678 490 c 0
 678 529 663 561 631 587 c 0
 596 614 553 628 502 628 c 0
 461 628 425 620 395 603 c 0
 346 576 321 537 321 486 c 0
 321 424 363 371 447 329 c 1
 340 292 286 237 286 164 c 0
 286 119 306 81 347 51 c 0
 388 22 437 7 496 7 c 0
 547 7 591 17 628 38 c 0
 681 69 708 112 708 168 c 0
 708 240 653 299 542 343 c 1
EndSplineSet
EndChar

StartChar: uni277E
Encoding: 10110 10110 35
Width: 1000
VWidth: 937
Flags: HW
LayerCount: 2
Fore
SplineSet
638 368 m 0
 602 307 556 276 498 276 c 0
 461 276 431 291 407 320 c 0
 384 350 372 387 372 431 c 0
 372 473 382 507 401 538 c 0
 426 578 459 599 501 599 c 0
 547 599 583 572 608 520 c 0
 620 494 629 465 634 431 c 0
 639 392 640 371 638 368 c 0
497 770 m 0
 583 770 663 747 736 701 c 0
 799 662 848 610 887 546 c 0
 929 476 951 401 951 319 c 0
 951 234 928 155 882 82 c 0
 841 18 789 -31 727 -69 c 0
 657 -111 581 -133 499 -133 c 0
 415 -133 336 -110 263 -64 c 0
 199 -23 150 29 112 91 c 0
 70 161 48 237 48 320 c 0
 48 468 110 589 235 682 c 0
 317 741 403 770 497 770 c 0
388 92 m 1
 404 102 413 115 413 131 c 0
 413 139 411 148 407 155 c 0
 398 172 384 181 364 181 c 0
 332 181 316 163 316 127 c 0
 316 106 325 85 342 64 c 0
 376 26 422 7 479 7 c 0
 552 7 609 39 650 103 c 0
 687 160 705 238 705 336 c 0
 705 410 694 471 671 517 c 0
 636 591 580 628 502 628 c 0
 454 628 412 614 377 586 c 0
 329 548 304 496 304 428 c 0
 304 380 317 340 343 308 c 0
 378 266 426 244 487 244 c 0
 549 244 599 269 638 320 c 1
 634 229 619 161 591 114 c 0
 560 63 522 37 477 37 c 0
 434 37 404 55 388 92 c 1
EndSplineSet
EndChar

